<svg width="35" height="31" viewBox="0 0 35 31" fill="none" xmlns="http://www.w3.org/2000/svg">
<path fill-rule="evenodd" clip-rule="evenodd" d="M2.59578 0.0383737C1.26232 0.249914 0.24206 1.28235 0.0386968 2.62596C-0.0128989 2.96685 -0.0128989 19.9393 0.0386968 20.2802C0.13963 20.9471 0.437149 21.5422 0.90037 22.0037C1.30125 22.403 1.73403 22.6538 2.27191 22.7983C2.38804 22.8294 2.48633 22.8583 2.49038 22.8623C2.49442 22.8664 2.7179 24.1148 2.98703 25.6366C3.25616 27.1584 3.49383 28.484 3.51521 28.5825C3.83993 30.0771 5.19846 31.1054 6.69774 30.9914C6.94456 30.9726 32.1045 26.5025 32.6244 26.3851C33.6292 26.1581 34.4296 25.4596 34.8086 24.479C34.9438 24.1292 35.0189 23.637 34.9959 23.2504C34.9816 23.009 32.0684 6.48902 31.9956 6.23663C31.9658 6.13304 31.9602 5.85671 31.96 4.48314C31.9599 3.18371 31.9529 2.80658 31.9256 2.62596C31.7206 1.27131 30.6948 0.242113 29.3447 0.0363937C29.018 -0.0134199 2.90994 -0.0114638 2.59578 0.0383737ZM29.3884 1.60438C29.6361 1.6952 29.8068 1.80332 29.9857 1.98284C30.165 2.16277 30.2729 2.33443 30.3623 2.58218L30.4255 2.75717L30.4333 4.05142L30.4411 5.34566H15.9821H1.5232L1.531 4.05142L1.5388 2.75717L1.60195 2.58218C1.69138 2.33443 1.79925 2.16277 1.9786 1.98284C2.20748 1.75317 2.48655 1.60445 2.78599 1.55253C2.84484 1.54235 8.81521 1.53545 16.0535 1.53722L29.214 1.54046L29.3884 1.60438ZM30.4329 14.6559L30.4266 20.149L30.3629 20.324C30.2724 20.5726 30.1646 20.7438 29.9857 20.9233C29.8068 21.1028 29.6361 21.211 29.3884 21.3018L29.214 21.3657H15.9821H2.75033L2.57592 21.3018C2.32817 21.211 2.1575 21.1028 1.9786 20.9233C1.79968 20.7438 1.69193 20.5726 1.60141 20.324L1.53771 20.149L1.53141 14.6559L1.52513 9.1628H15.9821H30.4392L30.4329 14.6559ZM5.33012 12.2165V12.9799H11.417H17.5039V12.2165V11.4531H11.417H5.33012V12.2165ZM32.725 18.98C33.392 22.7332 33.4671 23.1815 33.4683 23.4174C33.4697 23.7089 33.4253 23.8873 33.284 24.157C33.1243 24.4617 32.7378 24.7694 32.3882 24.8704C32.3162 24.8911 26.5064 25.9338 19.4773 27.1875C9.54896 28.9583 6.65166 29.4675 6.4928 29.4693C6.22962 29.4723 6.08263 29.4374 5.81217 29.3075C5.45109 29.1342 5.15809 28.7939 5.04413 28.4155C5.01842 28.3302 4.78876 27.0795 4.53373 25.6361C4.27873 24.1927 4.0645 22.9877 4.05767 22.9581L4.04526 22.9045L16.5821 22.9043C27.3842 22.9042 29.1501 22.8994 29.3447 22.8698C30.6948 22.664 31.7206 21.6348 31.9256 20.2802C31.9538 20.094 31.9604 19.5793 31.9628 17.3935C31.9644 15.9305 31.9696 14.7495 31.9744 14.7692C31.9792 14.7889 32.317 16.6837 32.725 18.98Z" fill="#FF8A00"/>
</svg>
