<svg width="34" height="34" viewBox="0 0 34 34" fill="none" xmlns="http://www.w3.org/2000/svg">
<path fill-rule="evenodd" clip-rule="evenodd" d="M13.1162 0.0220356C8.49492 0.346943 4.37874 2.51892 2.00164 5.88683C0.940297 7.39063 0.305763 9.01064 0.0622781 10.8385C-0.0208703 11.4625 -0.0207222 12.7927 0.0625002 13.5405C0.171489 14.5195 0.420231 15.6422 0.704031 16.436C1.14469 17.6687 1.88455 18.9616 2.7345 19.9842C3.10275 20.4273 3.82073 21.1561 4.15239 21.4235L4.37492 21.6029L4.3864 24.6215L4.39788 27.6401L4.95319 27.3269C5.51579 27.0096 6.43635 26.4927 9.08099 25.009C9.88526 24.5577 10.5766 24.1907 10.6173 24.1933C10.6581 24.1959 10.9913 24.2315 11.3578 24.2724C14.3836 24.6102 16.5305 24.4724 18.6693 23.803C21.4102 22.9453 23.6461 21.3381 25.2352 19.0834C26.5242 17.2545 27.2478 15.1672 27.4095 12.812C27.5737 10.4206 26.896 8.06545 25.428 5.92569C24.906 5.16483 24.5069 4.70235 23.7071 3.93129C22.4803 2.74874 21.4144 2.01586 19.8492 1.27875C18.5158 0.650787 17.139 0.250027 15.7077 0.0731667C15.1517 0.00448951 13.7573 -0.0230316 13.1162 0.0220356ZM14.8932 2.13736C15.7413 2.19814 16.3631 2.30876 17.2335 2.55366C19.0021 3.0513 20.8196 4.10747 22.1605 5.41664C23.415 6.64157 24.2475 7.92609 24.7701 9.44291C25.101 10.4036 25.2313 11.204 25.2309 12.2737C25.2301 14.3064 24.6511 16.2182 23.5531 17.8134C23.0853 18.493 22.8754 18.7443 22.3247 19.2841C20.4944 21.0781 18.085 22.093 15.1524 22.3054C14.0817 22.3829 11.8767 22.2755 10.5771 22.0825L10.3147 22.0435L8.44838 23.2495L6.5821 24.4556L6.57003 22.5628L6.55792 20.67L6.22488 20.4009C5.78267 20.0436 4.95433 19.2179 4.56884 18.7501C3.34793 17.2687 2.606 15.6531 2.30321 13.8166C2.19222 13.1435 2.16457 11.8362 2.24742 11.1794C2.51131 9.08757 3.43986 7.23587 5.00602 5.67822C5.94119 4.7481 6.83132 4.12121 8.11845 3.48629C9.7558 2.67856 11.5167 2.24536 13.653 2.12473C14.0866 2.10022 14.4235 2.10367 14.8932 2.13736ZM29.6066 10.672C29.605 11.3201 29.5858 11.7263 29.5418 12.0464C29.5075 12.2963 29.4796 12.5304 29.4798 12.5666C29.4801 12.6029 29.5742 12.7456 29.6889 12.8837C29.9576 13.2072 30.4134 13.8696 30.6565 14.2899C31.1818 15.1977 31.5675 16.3084 31.7447 17.4227C31.8214 17.9054 31.8093 19.4248 31.7249 19.9165C31.4976 21.2392 31.0028 22.4745 30.2658 23.5585C29.8276 24.2031 29.5607 24.5229 28.9821 25.097C28.276 25.7976 27.473 26.4172 26.6565 26.8915L26.3326 27.0797V28.9612V30.8428L24.4908 29.6495C22.9328 28.6401 22.6291 28.4565 22.5195 28.4577C22.4482 28.4584 22.1817 28.4937 21.9272 28.5361C21.1619 28.6636 20.6562 28.7029 19.7614 28.7043C18.3317 28.7067 17.4204 28.5566 16.2739 28.1302C15.5509 27.8612 14.9378 27.5394 13.8937 26.8807L13.3199 26.5187L12.9496 26.5446C12.4156 26.5819 10.893 26.5891 10.5268 26.5561L10.2142 26.5279L10.5268 26.8118C11.234 27.4539 11.6077 27.7636 12.1728 28.1763C13.3167 29.0114 14.6973 29.7055 15.932 30.0662C16.4434 30.2155 17.3008 30.3888 17.9033 30.4646C18.3994 30.527 19.7416 30.5959 20.0206 30.5733C20.1224 30.5651 20.4139 30.5496 20.6685 30.5389C20.923 30.5282 21.4149 30.4852 21.7617 30.4434L22.3923 30.3672L23.076 30.7772C23.452 31.0026 24.1762 31.4355 24.6852 31.7391C25.1942 32.0427 25.9189 32.476 26.2956 32.7021C27.458 33.3997 28.4761 34 28.497 34C28.5079 34 28.5168 32.6527 28.5168 31.006V28.012L28.9333 27.7115C31.0922 26.1539 32.6595 24.1324 33.4229 21.921C33.8278 20.7481 33.9992 19.7212 34 18.4633C34.0017 15.9091 33.1302 13.5953 31.36 11.4536C31.0602 11.0909 29.9311 9.97148 29.72 9.82766L29.6089 9.75199L29.6066 10.672ZM6.65614 10.6895C6.21415 10.8311 5.84305 11.146 5.63548 11.5554C5.51316 11.7966 5.5085 11.8209 5.5085 12.2192C5.5085 12.6098 5.51501 12.6459 5.627 12.8751C5.79119 13.211 6.06603 13.4822 6.40858 13.6463C6.65754 13.7656 6.72004 13.78 7.04071 13.7923C7.33228 13.8035 7.43886 13.7921 7.63085 13.7292C8.07869 13.5826 8.37649 13.327 8.59276 12.9035C8.72633 12.6421 8.72929 12.6273 8.72929 12.2218C8.72929 11.8299 8.72285 11.7941 8.61079 11.5648C8.44642 11.2285 8.1718 10.9576 7.82843 10.7932C7.57136 10.67 7.52446 10.6598 7.1778 10.6513C6.94234 10.6454 6.74947 10.6596 6.65614 10.6895ZM13.2083 10.7037C12.6812 10.886 12.3242 11.2381 12.1294 11.7679C12.0444 11.999 12.0578 12.4831 12.1563 12.741C12.4081 13.4003 12.9928 13.7987 13.7086 13.7987C14.3039 13.7987 14.8396 13.5081 15.1318 13.0268C15.3804 12.6174 15.4089 11.999 15.1991 11.5648C15.0368 11.2289 14.763 10.9584 14.4181 10.7932C14.162 10.6705 14.1127 10.6597 13.7675 10.65C13.4813 10.642 13.3505 10.6546 13.2083 10.7037ZM19.798 10.7037C19.3476 10.8594 19.0041 11.1584 18.8071 11.5661C18.6488 11.8937 18.6219 12.3449 18.7388 12.711C18.8836 13.1648 19.2736 13.5518 19.7523 13.717C20.2085 13.8744 20.8215 13.8034 21.203 13.549C22.2556 12.8471 22.1488 11.3397 21.0078 10.7932C20.7517 10.6705 20.7024 10.6597 20.3571 10.65C20.071 10.642 19.9401 10.6546 19.798 10.7037Z" fill="#FF8A00"/>
</svg>
