<svg width="35" height="35" viewBox="0 0 35 35" fill="none" xmlns="http://www.w3.org/2000/svg">
<path fill-rule="evenodd" clip-rule="evenodd" d="M16.5528 0.00984383C15.1869 0.111993 14.3581 0.239974 13.2133 0.52552C11.0359 1.0686 8.91113 2.07769 7.08781 3.43454C5.68667 4.47725 4.28885 5.8959 3.29188 7.28705C0.692322 10.9145 -0.420548 15.3117 0.142994 19.7291C0.562276 23.0156 1.88956 26.0575 4.05079 28.6851C4.55037 29.2925 5.69835 30.4405 6.31393 30.9482C10.1473 34.11 14.964 35.4964 19.8388 34.8412C20.9764 34.6882 21.9526 34.4611 23.0533 34.0933C26.32 33.0016 29.1762 30.9683 31.3461 28.1898C31.7003 27.7363 32.3705 26.7393 32.6624 26.2317C34.5685 22.9175 35.3445 19.0482 34.8588 15.2808C34.7817 14.6827 34.7348 14.5512 34.5151 14.3163C33.9939 13.7588 33.0911 13.9219 32.7779 14.6301C32.6885 14.8324 32.6855 15.0826 32.7654 15.6738C32.8471 16.2773 32.8806 17.9557 32.8251 18.66C32.672 20.6047 32.1951 22.3824 31.3597 24.1237C29.5352 27.9266 26.2583 30.8004 22.2404 32.1212C21.3329 32.4196 20.299 32.646 19.2494 32.7765C18.5092 32.8685 16.4907 32.8681 15.7492 32.7758C13.8644 32.5414 12.1987 32.039 10.5702 31.2138C6.28021 29.0401 3.23955 24.9704 2.37645 20.2471C2.1934 19.2454 2.15961 18.817 2.15961 17.496C2.15961 16.175 2.1934 15.7466 2.37645 14.7449C3.12986 10.6217 5.55687 6.95566 9.05282 4.66011C11.0985 3.31684 13.2688 2.52448 15.7492 2.21532C16.1623 2.16384 16.5236 2.15094 17.535 2.15155C18.6462 2.15222 18.8758 2.16223 19.3923 2.23236C21.9343 2.57754 23.9717 3.33896 26.0535 4.72174C26.3875 4.94355 26.7232 5.14506 26.7996 5.16954C27.0193 5.23992 27.4247 5.19969 27.6124 5.08882C27.9731 4.87577 28.1583 4.55857 28.1599 4.15122C28.1607 3.94814 28.142 3.86268 28.0604 3.69661C27.9376 3.44636 27.8016 3.32606 27.1608 2.90092C24.7802 1.32156 22.1833 0.390536 19.2852 0.0773716C18.7982 0.0247785 16.9606 -0.0206687 16.5528 0.00984383ZM30.1345 8.07652C30.0611 8.10392 29.9585 8.15415 29.9067 8.18813C29.8228 8.24308 17.1428 20.3542 16.2757 21.2075L15.9272 21.5505L12.329 17.9524C8.36766 13.9912 8.59857 14.1982 8.14228 14.1986C7.83415 14.1989 7.58674 14.3062 7.37687 14.5306C7.16339 14.7589 7.09663 14.9221 7.09177 15.2272C7.08377 15.7326 6.77118 15.3834 11.2264 19.8464C15.6941 24.3219 15.4148 24.0701 15.9125 24.0701C16.1365 24.0701 16.2009 24.0544 16.3883 23.954C16.5641 23.8598 17.9664 22.5349 23.8084 16.9433C27.7702 13.1512 31.0878 9.97447 31.1808 9.88387C31.4146 9.65609 31.5082 9.4588 31.5274 9.15328C31.5548 8.71692 31.3334 8.3249 30.9468 8.12543C30.7643 8.03128 30.3264 8.00491 30.1345 8.07652Z" fill="#FF8A00"/>
</svg>
