<svg width="25" height="36" viewBox="0 0 25 36" fill="none" xmlns="http://www.w3.org/2000/svg">
<path fill-rule="evenodd" clip-rule="evenodd" d="M8.55 35.35V31.3142C6.64548 30.8102 5.00469 29.9231 3.67861 28.6199L3.6693 28.6107C2.04186 26.9833 1.18769 24.87 1.02811 22.3966L0.92511 20.8H7.77926C6.87755 20.4795 6.029 20.0755 5.23676 19.5862L5.22819 19.5809L5.21969 19.5755C4.18732 18.9186 3.38982 17.9755 2.79994 16.8238C2.17709 15.6078 1.9 14.206 1.9 12.675C1.9 10.3433 2.61714 8.32657 4.15934 6.78437L4.16439 6.77931L4.16949 6.77431C5.37172 5.59477 6.84624 4.76487 8.55 4.25737V0.150024H17.85V4.40923C19.6099 5.01009 21.0747 5.96508 22.1682 7.31795C23.4411 8.86963 24.157 10.6897 24.3202 12.7304L24.4498 14.35H17.5348C17.8135 14.4282 18.0912 14.5121 18.3678 14.6017C19.4248 14.9129 20.3999 15.3323 21.2844 15.8673C22.338 16.4894 23.1588 17.391 23.7607 18.5089C24.3915 19.6804 24.675 21.0207 24.675 22.475C24.675 24.692 23.9565 26.6578 22.5165 28.2955L22.5079 28.3053C21.3048 29.6499 19.7274 30.5853 17.85 31.1598V35.35H8.55ZM16.35 30C18.52 29.5334 20.2 28.635 21.39 27.305C22.58 25.9517 23.175 24.3417 23.175 22.475C23.175 21.215 22.93 20.13 22.44 19.22C21.95 18.31 21.3083 17.6217 20.515 17.155C19.745 16.6884 18.8817 16.315 17.925 16.035C16.9917 15.7317 16.0467 15.4984 15.09 15.335C14.1567 15.1717 13.2933 15.0084 12.5 14.845C11.73 14.6584 11.1 14.39 10.61 14.04C10.12 13.69 9.875 13.235 9.875 12.675C9.875 12.0917 10.1317 11.6017 10.645 11.205C11.1817 10.785 11.975 10.575 13.025 10.575C14.0517 10.575 14.8683 10.785 15.475 11.205C16.0817 11.6017 16.4317 12.15 16.525 12.85H22.825C22.7834 12.3305 22.7007 11.8305 22.5769 11.35C22.2837 10.2121 21.7597 9.18377 21.005 8.26503C19.9317 6.93503 18.38 6.02503 16.35 5.53502V1.65002H10.05V5.43003C8.06667 5.82669 6.45667 6.63169 5.22 7.84503C4.00667 9.05836 3.4 10.6684 3.4 12.675C3.4 14.0284 3.645 15.1834 4.135 16.14C4.625 17.0967 5.255 17.82 6.025 18.31C6.81834 18.8 7.68167 19.1967 8.615 19.5C9.57167 19.8034 10.5167 20.0367 11.45 20.2C12.4067 20.34 13.27 20.4917 14.04 20.655C14.8333 20.8184 15.475 21.0634 15.965 21.39C16.455 21.6934 16.7 22.1134 16.7 22.65C16.7 24.1667 15.4167 24.925 12.85 24.925C10.3533 24.925 9.01167 24.05 8.825 22.3H2.525C2.55884 22.8246 2.62745 23.3246 2.73082 23.8C3.0551 25.2915 3.7215 26.5415 4.73 27.55C6.08334 28.88 7.85667 29.7317 10.05 30.105V33.85H16.35V30ZM12.8291 13.3813C13.5397 13.5273 14.3102 13.6739 15.1412 13.821L15.0382 13.0483C15.0042 12.7937 14.9067 12.6256 14.6541 12.4605L14.6375 12.4496L14.6212 12.4383C14.3461 12.2479 13.8623 12.075 13.025 12.075C12.1388 12.075 11.7333 12.2581 11.5695 12.3863L11.5622 12.392C11.4472 12.4808 11.4085 12.5427 11.3962 12.566C11.3866 12.5845 11.375 12.6122 11.375 12.675C11.375 12.705 11.3782 12.7198 11.3791 12.7234C11.3793 12.7243 11.3795 12.725 11.3796 12.7254C11.3799 12.726 11.3809 12.7275 11.3827 12.7301C11.385 12.7333 11.3892 12.7388 11.3962 12.7464C11.41 12.7616 11.4363 12.7869 11.4819 12.8194C11.7713 13.0262 12.2029 13.2271 12.8291 13.3813ZM10.2472 21.4909L10.3165 22.1409C10.3674 22.6181 10.5378 22.8475 10.7907 23.0124C11.1169 23.2251 11.7428 23.425 12.85 23.425C14.0347 23.425 14.6758 23.2413 14.9744 23.0649C15.1012 22.99 15.1392 22.9326 15.1529 22.9084C15.1663 22.8846 15.1958 22.822 15.1996 22.6811C15.1927 22.6764 15.1847 22.6712 15.1755 22.6654L15.154 22.6521L15.133 22.6381C14.8517 22.4506 14.408 22.2623 13.7375 22.1242L13.7287 22.1224C12.996 21.967 12.1647 21.8206 11.2328 21.6842L11.2121 21.6812L11.1914 21.6776C10.8774 21.6226 10.5626 21.5604 10.2472 21.4909Z" fill="#FF8A00"/>
</svg>
