<svg width="75" height="62" viewBox="0 0 75 62" fill="none" xmlns="http://www.w3.org/2000/svg">
<path fill-rule="evenodd" clip-rule="evenodd" d="M67.5693 4.54278C64.3878 2.15056 60.6361 0.907517 56.8603 0.994395C53.4061 1.07399 50.503 1.93888 47.8316 3.68431C46.6007 4.4885 43.9875 7.09798 43.1192 8.39002C42.6446 9.09616 42.0227 10.286 41.6426 11.2152C40.0667 15.0669 39.9528 19.2479 41.3148 23.2438C41.8842 24.9139 42.7134 26.4793 43.884 28.094C44.4822 28.9192 46.5135 30.9164 47.3811 31.5325C48.9005 32.6114 50.3834 33.3966 51.8238 33.8848C53.7592 34.541 55.1503 34.7868 57.1751 34.8306C59.3118 34.8768 61.0479 34.6399 62.8081 34.0619C65.5949 33.1468 67.14 32.182 69.3365 29.9855C70.6488 28.6732 71.3419 27.8218 71.9745 26.7448C74.1089 23.1109 74.8069 18.3763 73.8144 14.2652C73.0559 11.1239 71.6881 8.67646 69.2642 6.12426C68.5601 5.38278 68.0352 4.89296 67.5693 4.54278ZM67.364 10.951C68.5713 12.6606 69.3581 14.9314 69.5909 17.3776C69.8244 19.8329 69.1104 22.4908 67.573 24.889C67.0209 25.75 65.1987 27.5711 64.3313 28.1287C63.4025 28.7257 61.9109 29.4411 61.1229 29.6676C59.3013 30.1911 57.0476 30.3189 55.2562 30.0003C53.554 29.6977 51.5264 28.8336 50.1688 27.8322C49.2061 27.1222 47.6196 25.4439 46.9674 24.4455C45.6295 22.3975 45.0177 20.1197 45.0726 17.3902C45.1105 15.4994 45.6117 13.4976 46.4101 12.0481C47.5372 10.0014 49.7674 7.84602 51.7953 6.84359C54.4476 5.53238 58.1144 5.33173 61.1492 6.3317C63.6879 7.16822 65.8025 8.73994 67.364 10.951ZM63.3735 10.4592L62.5334 11.2991L61.7239 10.9313C61.2787 10.729 60.6538 10.5059 60.3351 10.4355C59.1424 10.1719 57.8691 10.3971 56.8608 11.0498C56.2392 11.4522 56.0856 11.6048 55.6979 12.205C55.0692 13.1784 54.8746 14.2865 55.1219 15.4851C55.2772 16.2375 55.8454 17.9491 56.2987 19.0299C57.0648 20.8562 57.0915 21.6477 56.4103 22.3289C56.0385 22.7006 55.6803 22.8458 55.1765 22.829C54.6454 22.8113 54.2082 22.6131 53.661 22.1417C52.7935 21.3946 52.195 20.1972 51.905 18.6285L51.7659 17.8767L51.4826 17.8319C51.2217 17.7907 49.2159 18.0428 49.1252 18.1282C49.1034 18.1488 49.1189 18.5942 49.1597 19.118C49.2432 20.1911 49.4687 20.925 50.1208 22.2454L50.5655 23.1462L50.1607 23.5666C49.938 23.7979 49.587 24.1896 49.3806 24.4371L49.0054 24.8872L49.7105 25.5494C50.0983 25.9136 50.464 26.2479 50.5232 26.2923C50.6116 26.3586 50.7636 26.2535 51.3696 25.7079C51.7759 25.3421 52.1655 24.9929 52.2353 24.9319C52.3349 24.8451 52.5027 24.8887 53.0112 25.1335C55.0109 26.0962 57.386 25.7974 58.7728 24.4086C59.5505 23.6299 59.8526 22.8711 59.8739 21.6433C59.89 20.7111 59.7173 20.0283 58.9426 17.9615C58.1837 15.937 58.0056 15.3461 57.989 14.799C57.9742 14.3082 58.1551 13.9572 58.6004 13.612C59.281 13.0847 60.0797 13.1512 60.9879 13.8106C61.8873 14.4636 62.7258 15.9599 62.8049 17.0526C62.8561 17.7594 63.0973 17.8003 64.671 17.3689L65.6044 17.113L65.57 16.6242C65.512 15.8015 64.7414 13.684 64.3617 13.3042C64.1719 13.1145 64.3205 12.8365 65.0361 12.0421L65.7107 11.2933L65.3895 10.8965C65.2129 10.6782 64.8761 10.3016 64.6409 10.0595L64.2136 9.61926L63.3735 10.4592ZM68.6627 53.923C68.4363 53.7482 68.1216 53.5512 67.9635 53.4854C67.533 53.306 63.9384 53.2042 55.1035 53.121L47.1481 53.0461L43.4297 49.2979C39.2165 45.0508 37.9483 43.7083 37.692 43.224C37.4561 42.7782 37.4087 41.9946 37.5828 41.4205C37.7069 41.0116 37.7894 40.8911 38.2832 40.3968C38.7462 39.9333 38.9131 39.813 39.2497 39.701C39.7099 39.5476 40.4133 39.5282 40.8146 39.6576C41.2309 39.792 42.1951 40.6907 46.2725 44.7457C49.9244 48.3775 51.0048 49.3825 51.719 49.8128C52.1587 50.0777 52.675 50.0926 53.3674 49.8604C53.8585 49.6957 53.9189 49.6507 54.7071 48.8627C55.494 48.0761 55.5417 48.0122 55.7296 47.4929C56.0762 46.5347 55.9581 46.2424 54.5932 44.6805C54.1451 44.1678 49.9731 39.9462 44.8996 34.8717L35.9928 25.9632L35.0869 25.5376C34.1007 25.0743 32.8456 24.6249 32.1831 24.4977C31.3479 24.3373 28.5716 24.2546 22.0537 24.1958L15.4123 24.1358L15.4521 26.7066C15.4833 28.7192 15.771 41.0517 15.8531 43.8909L15.8691 44.4454L21.3013 44.4864L26.7336 44.5274L34.573 52.3639C38.8846 56.6741 42.7543 60.494 43.1723 60.8528C43.71 61.3142 44.0192 61.5284 44.2298 61.5851C44.3935 61.6293 45.099 61.6285 45.7976 61.5835C49.4163 61.3503 67.9417 59.2282 69.5202 58.8662C69.8314 58.7948 69.9397 58.7204 70.2662 58.3542C70.5988 57.9811 70.6606 57.8551 70.7453 57.3768C70.8719 56.6624 70.7735 56.1683 70.4023 55.6543C70.0605 55.1811 69.2594 54.3837 68.6627 53.923ZM12.3599 20.3388C12.1976 20.29 11.7247 20.2173 11.309 20.1774C10.2836 20.0786 1.97921 20.0644 1.45144 20.1604C0.889801 20.2627 0.493179 20.5372 0.389072 20.8956C0.345532 21.0457 0.289972 22.451 0.265731 24.0184C0.211919 27.4897 0.364012 43.7839 0.471367 46.0591C0.556577 47.8655 0.586751 47.9456 1.27715 48.2034C1.46885 48.2749 2.3202 48.366 3.16896 48.4057C5.43616 48.5119 11.6911 48.4998 12.2523 48.3882C12.8934 48.2608 13.1936 47.9698 13.3131 47.3599C13.3608 47.1168 13.4191 45.7999 13.4426 44.4334C13.4998 41.126 13.3326 23.9154 13.2291 22.4464C13.1173 20.8607 12.9788 20.5249 12.3599 20.3388Z" fill="url(#paint0_linear_101_8)"/>
<defs>
<linearGradient id="paint0_linear_101_8" x1="48.3313" y1="-14.823" x2="43.8202" y2="74.3938" gradientUnits="userSpaceOnUse">
<stop stop-color="#FF7B43"/>
<stop offset="1" stop-color="#FFDE31"/>
</linearGradient>
</defs>
</svg>
