<svg width="33" height="33" viewBox="0 0 33 33" fill="none" xmlns="http://www.w3.org/2000/svg">
<path fill-rule="evenodd" clip-rule="evenodd" d="M17.1553 0.0337931C17.0619 0.049597 16.905 0.0980356 16.8067 0.141451C16.7084 0.184902 12.9872 1.92323 8.53722 4.00443C1.07737 7.49337 0.433005 7.80175 0.274308 7.95872C-0.0390863 8.26871 -0.0881447 8.70866 0.148818 9.08377C0.200005 9.16474 0.29614 9.27225 0.362481 9.32263C0.428858 9.37305 2.25418 10.2845 4.41881 11.3481C6.58343 12.4116 8.3502 13.2849 8.34495 13.2886C8.3397 13.2923 6.64596 14.085 4.58106 15.05C2.45005 16.0459 0.811969 16.8321 0.792668 16.8682C0.711173 17.0204 0.356684 16.833 5.50088 19.3577C6.5856 19.89 7.47313 20.3362 7.47313 20.3492C7.47313 20.3622 6.03249 21.0463 4.27167 21.8695C0.210682 23.768 0.417153 23.6663 0.24466 23.8533C-0.147514 24.2785 -0.047232 24.9352 0.457846 25.2491C0.572658 25.3204 4.1093 27.0698 8.31706 29.1366C16.7292 33.2685 16.247 33.0499 16.7715 32.9687C16.9501 32.9411 17.1479 32.8697 17.4326 32.73C17.6561 32.6204 21.1495 30.8204 25.1958 28.7299C31.8209 25.3072 32.5698 24.9116 32.7244 24.7521C32.9299 24.5402 33.0304 24.2578 32.9919 24.001C32.959 23.7814 32.7821 23.4843 32.6121 23.3627C32.5349 23.3075 31.0016 22.5199 29.2047 21.6123C27.4078 20.7048 25.945 19.9544 25.9542 19.9448C25.9633 19.9351 27.3593 19.2091 29.0564 18.3314C30.9064 17.3746 32.1625 16.7041 32.1932 16.6571C32.2389 16.587 32.2354 16.5689 32.16 16.4868C32.1127 16.4352 30.572 15.6358 28.6449 14.663C26.758 13.7105 25.2008 12.919 25.1845 12.9043C25.1682 12.8895 26.7946 12.0314 28.7987 10.9973C30.8029 9.96322 32.5004 9.07439 32.5711 9.0221C32.8633 8.80583 32.9879 8.57398 32.9879 8.24682C32.9879 7.77711 32.7895 7.55519 32.0232 7.16819C31.7292 7.01969 28.9128 5.59513 25.7645 4.00245C22.6163 2.40981 19.5781 0.874629 19.013 0.590965C17.821 -0.00742191 17.6692 -0.0529637 17.1553 0.0337931ZM24.0827 4.88253C27.7216 6.72282 30.6991 8.23912 30.6993 8.25214C30.6996 8.26512 27.6409 9.8556 23.9024 11.7865C20.1638 13.7174 16.9812 15.363 16.8298 15.4434L16.5546 15.5896L14.2613 14.4617C13 13.8413 11.5717 13.14 11.0874 12.9032C8.16002 11.4717 2.42466 8.64332 2.40048 8.61915C2.38466 8.60335 2.74763 8.41608 3.20706 8.20293C4.28774 7.70157 8.67698 5.64772 13.5641 3.35658C15.6933 2.35848 17.4423 1.54063 17.4508 1.53917C17.4594 1.53774 20.4438 3.04226 24.0827 4.88253ZM27.2276 22.3456C30.5989 24.0499 30.6996 24.1014 30.6997 24.1247C30.6997 24.1351 27.5162 25.7892 23.6252 27.8004L16.5507 31.4571L10.2415 28.3553C6.77141 26.6493 3.57726 25.0807 3.14336 24.8696C2.37817 24.4974 2.35729 24.4843 2.44891 24.4355C2.54578 24.3839 3.33828 24.0122 6.97238 22.3137L9.05852 21.3388L12.458 23.0109C14.3277 23.9306 15.9539 24.7141 16.0717 24.752C16.3083 24.828 16.68 24.8406 16.9399 24.7814C17.1001 24.7449 17.8689 24.3549 22.2971 22.0639C23.4575 21.4635 24.4295 20.9719 24.4572 20.9715C24.4849 20.971 25.7316 21.5894 27.2276 22.3456Z" fill="#FF8A00"/>
</svg>
