<svg width="32" height="35" viewBox="0 0 32 35" fill="none" xmlns="http://www.w3.org/2000/svg">
<path fill-rule="evenodd" clip-rule="evenodd" d="M14.6903 0.00708274C13.3141 0.065958 12.3033 0.144494 11.2794 0.272182C5.78854 0.956844 1.65483 2.75134 0.374966 5.00601C0.0949853 5.49921 -0.0264266 6.01479 0.00477913 6.57774C0.0903408 8.12058 1.56042 9.59346 4.14962 10.7305C10.5434 13.5382 21.4264 13.5423 27.8233 10.7392C29.8172 9.86546 31.1374 8.80738 31.7099 7.62419C31.9325 7.16431 31.9808 6.94068 31.978 6.38356C31.9757 5.94076 31.966 5.87277 31.8603 5.55866C31.4613 4.37243 30.272 3.27493 28.3761 2.34343C25.8599 1.10709 22.4603 0.329449 18.3733 0.0553412C17.8331 0.0190937 15.2121 -0.0152234 14.6903 0.00708274ZM0.270826 12.2538C0.0690774 12.593 0.0136691 12.8035 0.0142134 13.2291C0.0146488 13.5716 0.026986 13.6513 0.109717 13.8468C0.258416 14.1981 0.42602 14.449 0.715906 14.7543C1.86388 15.9631 4.44147 17.0268 7.79601 17.6761C8.20513 17.7553 8.62582 17.8346 8.73087 17.8523L8.92188 17.8845L8.9123 16.7563L8.90272 15.6281L8.63058 15.5809C6.86357 15.274 5.25543 14.8621 3.9683 14.3865C2.2952 13.7684 1.0722 13.0096 0.463031 12.2118L0.369051 12.0887L0.270826 12.2538ZM31.4761 12.2769C31.0368 12.8665 29.9305 13.6008 28.6784 14.1338C27.4176 14.6707 25.5971 15.1802 23.7617 15.5102L23.0904 15.6308L23.0808 16.7579L23.0713 17.885L23.5526 17.8011C29.4998 16.7642 32.824 14.6088 31.8166 12.4427C31.7617 12.3247 31.6933 12.1981 31.6644 12.1613C31.6151 12.0982 31.6043 12.1048 31.4761 12.2769ZM16.0816 13.9624C15.8609 14.0069 15.6643 14.1165 15.5171 14.277C15.3614 14.4469 15.354 14.4797 15.3238 15.1453L15.3001 15.6673L14.8773 15.7106C13.4252 15.8594 12.3741 16.3135 11.6241 17.1159C10.85 17.9442 10.5365 19.1379 10.7956 20.2711C10.9809 21.0817 11.5658 21.7751 12.5574 22.3596C13.0319 22.6392 13.5734 22.8674 14.8354 23.3194L15.035 23.3908L15.0462 23.6005C15.0596 23.8508 14.9505 27.0154 14.9277 27.0378C14.8939 27.0711 14.3927 26.895 14.0866 26.7422C13.9097 26.6539 13.6425 26.4915 13.4929 26.3813C12.8642 25.9183 12.6096 25.817 12.0777 25.8183C11.5023 25.8196 11.1604 25.972 10.9789 26.3081C10.8557 26.5362 10.8644 26.9915 10.9971 27.2707C11.3795 28.0746 12.7491 28.7724 14.6908 29.1525L14.8908 29.1917L14.8772 29.7114C14.858 30.4399 14.9376 30.6138 15.3794 30.8098C15.6183 30.9157 16.0609 30.913 16.305 30.8043C16.7169 30.6207 16.7977 30.4623 16.8229 29.7883C16.844 29.2266 16.8006 29.2822 17.2484 29.2431C17.8001 29.1949 18.6095 28.9908 19.1047 28.7751C20.1871 28.3035 20.9348 27.4725 21.1918 26.4555C21.3068 26.0004 21.3061 25.1248 21.1903 24.7049C20.991 23.9822 20.4883 23.3314 19.7461 22.8354C19.2455 22.5009 18.5425 22.188 17.542 21.8546C17.3007 21.7742 17.0919 21.6987 17.0781 21.6869C17.0642 21.6751 17.0756 21.038 17.1034 20.2713C17.1312 19.5045 17.1568 18.7029 17.1603 18.4901L17.1665 18.103L17.2619 18.1256C17.4355 18.1667 17.7972 18.3479 18.1872 18.5891C18.6954 18.9034 18.9008 18.9923 19.2309 19.0406C19.7713 19.1198 20.2851 18.9646 20.4997 18.6573C20.6266 18.4757 20.729 18.1077 20.7006 17.9355C20.5654 17.1152 19.1258 16.1565 17.5518 15.8388L17.2383 15.7755L17.2434 15.1259L17.2484 14.4764L17.1501 14.3293C16.9716 14.0624 16.4589 13.8863 16.0816 13.9624ZM0.270136 17.8315C0.0690048 18.1696 0.0136691 18.3804 0.0143585 18.8056C0.0149391 19.1548 0.0266231 19.2269 0.118499 19.4491C0.451746 20.255 1.33062 21.0214 2.66158 21.6667C4.251 22.4373 6.07795 22.9666 8.82108 23.4512L8.92086 23.4688V22.3444V21.2199L8.83922 21.2024C8.7943 21.1927 8.52081 21.1434 8.23143 21.0927C5.85418 20.676 3.60465 19.9576 2.16831 19.1564C1.44989 18.7557 0.743701 18.1891 0.442856 17.7719L0.367636 17.6676L0.270136 17.8315ZM31.5504 17.7658C31.3251 18.1045 30.654 18.6697 30.0391 19.0384C28.6638 19.8631 26.3319 20.6306 23.8506 21.0752C23.5123 21.1358 23.1988 21.1931 23.1539 21.2026L23.0723 21.2199V22.3459V23.472L23.1539 23.4547C23.1988 23.4452 23.5123 23.3879 23.8506 23.3272C26.546 22.8443 28.8998 22.0381 30.3294 21.1082C30.9469 20.7066 31.5195 20.1463 31.7364 19.7313C32.0635 19.1056 32.085 18.5799 31.8073 17.9956C31.7574 17.8906 31.6932 17.7748 31.6647 17.7383C31.6151 17.6748 31.6102 17.676 31.5504 17.7658ZM15.2336 18.046C15.2331 18.1296 15.2176 18.6242 15.1992 19.1452C15.1807 19.6662 15.1622 20.2976 15.1581 20.5483C15.154 20.799 15.1471 21.0041 15.1428 21.0041C15.1035 21.0041 14.7303 20.8198 14.5107 20.692C14.0856 20.4446 13.8767 20.2505 13.7393 19.9756C13.6288 19.7544 13.62 19.7111 13.6221 19.3962C13.6251 18.9432 13.7137 18.7153 13.9955 18.436C14.2395 18.1941 14.4826 18.0593 14.8424 17.9665C15.2306 17.8663 15.2348 17.8671 15.2336 18.046ZM0.277865 23.3678C0.0770239 23.7098 0.0172977 23.9281 0.0149391 24.3285C0.012254 24.7847 0.0941145 25.0541 0.35421 25.4454C1.34031 26.9287 4.30757 28.2038 8.48271 28.9384C8.71073 28.9786 8.90257 29.0114 8.90907 29.0114C8.91556 29.0114 8.92086 28.5047 8.92086 27.8854C8.92086 27.2661 8.91636 26.7593 8.91088 26.7593C8.82692 26.7593 7.67674 26.5406 7.12472 26.4197C4.1633 25.7708 1.96363 24.8359 0.861811 23.7578C0.670186 23.5704 0.481101 23.3707 0.441586 23.3141L0.369741 23.2113L0.277865 23.3678ZM31.5075 23.365C31.3297 23.6179 30.7798 24.1005 30.3386 24.3911C29.1193 25.194 27.2532 25.8915 24.9705 26.3977C24.4308 26.5174 23.1762 26.7593 23.0955 26.7593C23.0827 26.7593 23.0723 27.2661 23.0723 27.8854C23.0723 28.5047 23.0782 29.0114 23.0855 29.0114C23.0927 29.0114 23.3729 28.9626 23.708 28.903C25.0071 28.6718 26.1448 28.3925 27.2633 28.0301C29.505 27.3038 30.9575 26.4463 31.6344 25.4495C31.8634 25.1123 31.9641 24.8186 31.9879 24.4179C32.0047 24.1343 31.9956 24.0628 31.9106 23.8141C31.83 23.5783 31.6543 23.2204 31.6191 23.2204C31.6137 23.2204 31.5635 23.2855 31.5075 23.365ZM17.5766 24.4551C18.2357 24.8839 18.4881 25.3504 18.3914 25.9607C18.2935 26.5782 17.8781 26.9669 17.143 27.1286L16.8924 27.1838L16.9166 26.2656C16.9298 25.7605 16.9512 25.0708 16.964 24.7327L16.9874 24.1182L17.136 24.1917C17.2178 24.2321 17.4161 24.3506 17.5766 24.4551ZM0.269411 28.8428C0.0684968 29.1806 0.0135966 29.3906 0.0151931 29.8157C0.0164269 30.156 0.02978 30.2419 0.114362 30.4542C0.552983 31.5551 2.09393 32.6087 4.42343 33.4006C7.02127 34.2836 10.385 34.8298 14.1588 34.9814C15.075 35.0182 17.7597 34.9972 18.6273 34.9465C22.556 34.7168 25.8748 34.091 28.3519 33.113C29.6678 32.5934 30.6019 32.0342 31.2405 31.3838C31.5597 31.0588 31.7463 30.7862 31.881 30.4483C31.9631 30.2425 31.9767 30.1538 31.978 29.8157C31.9795 29.3902 31.9247 29.1806 31.723 28.8416L31.6255 28.6777L31.5503 28.782C31.5089 28.8393 31.3684 28.9964 31.2379 29.131C29.5848 30.8362 25.2557 32.1635 19.9154 32.6023C18.5446 32.7149 17.7379 32.7441 15.9966 32.7442C14.1747 32.7443 13.4259 32.715 11.8781 32.5829C7.30365 32.1926 3.4484 31.132 1.44601 29.713C1.13464 29.4923 0.627224 29.024 0.457987 28.8011L0.366185 28.6801L0.269411 28.8428Z" fill="#FF8A00"/>
</svg>
