<svg width="45" height="43" viewBox="0 0 45 43" fill="none" xmlns="http://www.w3.org/2000/svg">
<path fill-rule="evenodd" clip-rule="evenodd" d="M16.2451 6.31285L10.0105 12.6257L11.8823 14.5205L13.754 16.4153L16.8538 13.2764C18.5587 11.5501 19.9691 10.1375 19.9882 10.1375C20.0072 10.1375 20.0227 12.973 20.0227 16.4386V22.7397H22.5258H25.0288V16.4271V10.1146L28.1405 13.265L31.2522 16.4155L33.1235 14.5203L34.9948 12.6251L28.7602 6.31257C25.3312 2.84065 22.5153 0 22.5027 0C22.49 0 19.6742 2.84079 16.2451 6.31285ZM4.98162 19.0018C3.8684 19.1167 2.67099 19.372 1.98181 19.6415C0.946333 20.0464 0.364943 20.4801 0.107751 21.0393C-0.043992 21.3693 -0.0351281 21.6336 0.139487 21.9873C0.621308 22.9637 2.451 23.714 4.9357 23.9541C5.73763 24.0316 7.61972 23.9817 8.38023 23.8628C10.021 23.6063 11.2842 23.1262 11.9542 22.5047C13.4119 21.1522 11.8285 19.6446 8.38317 19.1047C7.90984 19.0305 7.50688 19.0077 6.47425 18.9968C5.75435 18.9891 5.08266 18.9914 4.98162 19.0018ZM0.0131872 26.1576C0.0215 28.1057 0.0217755 28.1113 0.12874 28.32C0.602983 29.2452 2.29126 29.9794 4.56828 30.2508C5.5356 30.3662 7.11163 30.3557 8.10466 30.2274C9.93945 29.9903 11.4024 29.4336 12.0706 28.7182C12.5026 28.2556 12.4887 28.3411 12.4887 26.1576V24.251L12.398 24.4534C12.1885 24.9209 11.7669 25.2835 11.0142 25.6439C10.047 26.1069 8.87238 26.3824 7.34916 26.5037C5.03899 26.6877 2.55585 26.2727 1.12788 25.4641C0.622547 25.178 0.150785 24.6853 0.043499 24.3318C0.0215459 24.2594 0.00850261 25.0472 0.0131872 26.1576ZM21.102 25.3494C19.0808 25.5427 17.3319 26.1635 16.6472 26.9309C15.7143 27.9765 16.5067 29.1141 18.6449 29.7989C21.9243 30.8491 26.8524 30.2988 28.3294 28.7175C28.6492 28.3751 28.7649 28.107 28.7396 27.767C28.7289 27.6235 28.6812 27.4225 28.6337 27.3202C28.5223 27.0806 28.0573 26.6197 27.7263 26.4208C26.8409 25.8889 25.4034 25.489 23.8576 25.3446C23.2688 25.2896 21.699 25.2924 21.102 25.3494ZM0.012636 32.482C0.021454 34.4209 0.0222807 34.4365 0.126811 34.6348C0.44063 35.2299 1.19746 35.736 2.31785 36.1001C3.49901 36.4839 4.7045 36.6521 6.26758 36.6512C7.77564 36.6503 8.89222 36.5022 10.0441 36.1503C11.0186 35.8526 11.9297 35.3283 12.2251 34.8953C12.4937 34.5014 12.4907 34.529 12.4907 32.4951L12.4906 30.6219L12.3971 30.8131C11.9881 31.6497 10.5991 32.3431 8.68206 32.6677C6.80341 32.9857 4.88407 32.9373 3.11946 32.5276C2.41669 32.3643 1.97294 32.2075 1.3775 31.912C0.933612 31.6918 0.795141 31.595 0.500014 31.299C0.255269 31.0534 0.127546 30.8843 0.0766584 30.7381C0.00818112 30.5416 0.00427732 30.6476 0.012636 32.482ZM16.2682 32.5285L16.2797 34.4816L16.4024 34.6908C17.1587 35.9805 20.0759 36.8076 23.2818 36.6414C25.6187 36.5202 27.5388 35.907 28.3496 35.0229C28.7589 34.5766 28.7469 34.6536 28.7469 32.482V30.5754L28.6562 30.7778C28.4551 31.2265 28.0606 31.5756 27.3457 31.9377C26.5978 32.3165 25.3373 32.6519 24.1332 32.7925C23.4817 32.8686 21.5239 32.8686 20.8724 32.7925C19.2294 32.6007 17.7625 32.1199 16.9629 31.5112C16.6512 31.2739 16.4812 31.0704 16.3464 30.7733L16.2566 30.5754L16.2682 32.5285ZM37.4521 31.6743C36.0829 31.7931 34.834 32.104 33.9157 32.5548C33.3618 32.8266 32.9676 33.1379 32.7245 33.4952C32.2005 34.2654 32.6539 35.1201 33.9154 35.7402C35.1411 36.3426 36.7816 36.6566 38.7151 36.6589C39.8269 36.6602 40.4615 36.6068 41.4018 36.4326C44.4041 35.8764 45.7974 34.4267 44.5266 33.1813C43.3867 32.0642 40.3685 31.4213 37.4521 31.6743ZM0.000557225 38.7399C-0.00187691 40.9953 -0.015655 40.9179 0.476821 41.4105C0.856638 41.7904 1.21914 42.015 1.86593 42.2713C4.86809 43.461 9.81145 43.1507 11.7845 41.6487C12.0971 41.4108 12.2673 41.2067 12.3999 40.9108C12.483 40.7255 12.4886 40.5931 12.4874 38.8296L12.4861 36.9462L12.3921 37.1424C11.952 38.061 10.3946 38.7728 8.12363 39.0931C7.31578 39.207 5.21291 39.2075 4.40754 39.094C3.02766 38.8995 2.1668 38.655 1.33042 38.2203C0.619654 37.8509 0.222431 37.4774 0.0648551 37.03C0.0105234 36.8758 0.00230245 37.0942 0.000557225 38.7399ZM44.9721 36.9364C44.9514 37.0933 44.7825 37.3742 44.5848 37.5801C43.0328 39.1967 38.0855 39.715 34.7424 38.6111C33.6647 38.2553 32.8959 37.7253 32.6104 37.1415L32.515 36.9462L32.516 38.8296C32.5169 40.5903 32.5227 40.7258 32.6057 40.9108C32.7383 41.2067 32.9085 41.4108 33.2211 41.6487C35.0676 43.0544 39.5966 43.4369 42.6648 42.4464C43.557 42.1584 44.2106 41.7839 44.6278 41.3218C45.0113 40.8968 45.0101 40.9058 44.9956 38.7346C44.9887 37.6998 44.9781 36.8906 44.9721 36.9364ZM16.2682 38.8528L16.2797 40.8059L16.405 41.0218C16.8695 41.8218 18.2675 42.5008 20.0687 42.8012C21.3165 43.0093 23.0707 43.0533 24.2407 42.906C26.5408 42.6163 28.2149 41.8722 28.6383 40.9514L28.748 40.7129L28.7484 38.8105L28.7489 36.9081L28.6071 37.1953C28.2861 37.8459 27.3316 38.4133 25.9338 38.7846C22.9672 39.5727 18.9836 39.2044 17.1558 37.973C16.7362 37.6903 16.4994 37.4356 16.3502 37.1063L16.2566 36.8997L16.2682 38.8528Z" fill="url(#paint0_linear_2_117)"/>
<defs>
<linearGradient id="paint0_linear_2_117" x1="6.42857" y1="-8.11732e-08" x2="29.6532" y2="37.9344" gradientUnits="userSpaceOnUse">
<stop stop-color="#FF7B43"/>
<stop offset="1" stop-color="#FFDE31"/>
</linearGradient>
</defs>
</svg>
